<svg xmlns="http://www.w3.org/2000/svg" viewBox="0 0 512 512">
  <defs>
    <linearGradient id="g" x1="96" y1="64" x2="416" y2="448" gradientUnits="userSpaceOnUse">
      <stop offset="0" stop-color="#6366f1"/>
      <stop offset="1" stop-color="#a855f7"/>
    </linearGradient>
  </defs>
  <rect width="512" height="512" rx="112" fill="#131121"/>
  <rect x="44" y="44" width="424" height="424" rx="92" fill="url(#g)" opacity=".92"/>
  <path d="M139 183c26-30 74-38 113-18l-20 37c-23-11-49-7-64 11-24 28-10 80 31 91 21 6 46 1 62-12v-28h-65v-41h113v91c-31 31-83 43-126 30-75-23-94-115-44-161Z" fill="#fff"/>
  <path d="M336 168h42v135h73v39H336V168Z" fill="#fff" opacity=".92"/>
  <text x="256" y="404" text-anchor="middle" font-family="Arial, Helvetica, sans-serif" font-size="54" font-weight="800" letter-spacing="4" fill="#fff">GRE</text>
</svg>
